<svg id="visual" viewBox="0 0 960 540" width="960" height="540" xmlns="http://www.w3.org/2000/svg" xmlns:xlink="http://www.w3.org/1999/xlink" version="1.1"><path d="M0 82L14.5 93.7C29 105.3 58 128.7 87.2 140.3C116.3 152 145.7 152 174.8 147.5C204 143 233 134 262 123.2C291 112.3 320 99.7 349 92.5C378 85.3 407 83.7 436.2 90C465.3 96.3 494.7 110.7 523.8 135C553 159.3 582 193.7 611 195.5C640 197.3 669 166.7 698 146C727 125.3 756 114.7 785.2 126.3C814.3 138 843.7 172 872.8 185.5C902 199 931 192 945.5 188.5L960 185L960 0L945.5 0C931 0 902 0 872.8 0C843.7 0 814.3 0 785.2 0C756 0 727 0 698 0C669 0 640 0 611 0C582 0 553 0 523.8 0C494.7 0 465.3 0 436.2 0C407 0 378 0 349 0C320 0 291 0 262 0C233 0 204 0 174.8 0C145.7 0 116.3 0 87.2 0C58 0 29 0 14.5 0L0 0Z" fill="#d972ff"></path><path d="M0 120L14.5 138C29 156 58 192 87.2 205.5C116.3 219 145.7 210 174.8 208.2C204 206.3 233 211.7 262 205.3C291 199 320 181 349 173.8C378 166.7 407 170.3 436.2 179.3C465.3 188.3 494.7 202.7 523.8 220.7C553 238.7 582 260.3 611 261.2C640 262 669 242 698 219.5C727 197 756 172 785.2 177.5C814.3 183 843.7 219 872.8 236C902 253 931 251 945.5 250L960 249L960 183L945.5 186.5C931 190 902 197 872.8 183.5C843.7 170 814.3 136 785.2 124.3C756 112.7 727 123.3 698 144C669 164.7 640 195.3 611 193.5C582 191.7 553 157.3 523.8 133C494.7 108.7 465.3 94.3 436.2 88C407 81.7 378 83.3 349 90.5C320 97.7 291 110.3 262 121.2C233 132 204 141 174.8 145.5C145.7 150 116.3 150 87.2 138.3C58 126.7 29 103.3 14.5 91.7L0 80Z" fill="#ce4cff"></path><path d="M0 179L14.5 197C29 215 58 251 87.2 264.5C116.3 278 145.7 269 174.8 266.3C204 263.7 233 267.3 262 264.7C291 262 320 253 349 244.8C378 236.7 407 229.3 436.2 239.2C465.3 249 494.7 276 523.8 301.3C553 326.7 582 350.3 611 347.7C640 345 669 316 698 290.7C727 265.3 756 243.7 785.2 245.5C814.3 247.3 843.7 272.7 872.8 291.7C902 310.7 931 323.3 945.5 329.7L960 336L960 247L945.5 248C931 249 902 251 872.8 234C843.7 217 814.3 181 785.2 175.5C756 170 727 195 698 217.5C669 240 640 260 611 259.2C582 258.3 553 236.7 523.8 218.7C494.7 200.7 465.3 186.3 436.2 177.3C407 168.3 378 164.7 349 171.8C320 179 291 197 262 203.3C233 209.7 204 204.3 174.8 206.2C145.7 208 116.3 217 87.2 203.5C58 190 29 154 14.5 136L0 118Z" fill="#c100ff"></path><path d="M0 330L14.5 345.3C29 360.7 58 391.3 87.2 404C116.3 416.7 145.7 411.3 174.8 403.3C204 395.3 233 384.7 262 376.5C291 368.3 320 362.7 349 358.2C378 353.7 407 350.3 436.2 354.8C465.3 359.3 494.7 371.7 523.8 384.2C553 396.7 582 409.3 611 408.5C640 407.7 669 393.3 698 385.3C727 377.3 756 375.7 785.2 384.7C814.3 393.7 843.7 413.3 872.8 417.8C902 422.3 931 411.7 945.5 406.3L960 401L960 334L945.5 327.7C931 321.3 902 308.7 872.8 289.7C843.7 270.7 814.3 245.3 785.2 243.5C756 241.7 727 263.3 698 288.7C669 314 640 343 611 345.7C582 348.3 553 324.7 523.8 299.3C494.7 274 465.3 247 436.2 237.2C407 227.3 378 234.7 349 242.8C320 251 291 260 262 262.7C233 265.3 204 261.7 174.8 264.3C145.7 267 116.3 276 87.2 262.5C58 249 29 213 14.5 195L0 177Z" fill="#a700dc"></path><path d="M0 541L14.5 541C29 541 58 541 87.2 541C116.3 541 145.7 541 174.8 541C204 541 233 541 262 541C291 541 320 541 349 541C378 541 407 541 436.2 541C465.3 541 494.7 541 523.8 541C553 541 582 541 611 541C640 541 669 541 698 541C727 541 756 541 785.2 541C814.3 541 843.7 541 872.8 541C902 541 931 541 945.5 541L960 541L960 399L945.5 404.3C931 409.7 902 420.3 872.8 415.8C843.7 411.3 814.3 391.7 785.2 382.7C756 373.7 727 375.3 698 383.3C669 391.3 640 405.7 611 406.5C582 407.3 553 394.7 523.8 382.2C494.7 369.7 465.3 357.3 436.2 352.8C407 348.3 378 351.7 349 356.2C320 360.7 291 366.3 262 374.5C233 382.7 204 393.3 174.8 401.3C145.7 409.3 116.3 414.7 87.2 402C58 389.3 29 358.7 14.5 343.3L0 328Z" fill="#8e00ba"></path></svg>